<svg xmlns="http://www.w3.org/2000/svg" viewBox="0 0 48 48" fill="none" aria-hidden="true">
  <rect width="48" height="48" rx="12" fill="#fff6d8" stroke="#334155" stroke-width="2"/>
  <circle cx="24" cy="22" r="13" fill="#5eb8f2" stroke="#1e293b" stroke-width="2.2"/>
  <path d="M12 22c0-6.6 5.4-12 12-12" stroke="rgba(255,255,255,0.35)" stroke-width="1.6" stroke-linecap="round"/>
  <ellipse cx="24" cy="22" rx="13" ry="13" fill="none" stroke="#1e293b" stroke-width="1.8" stroke-dasharray="3 2.5" transform="rotate(-6 24 22)"/>
  <path d="M24 11v2.8M24 30.2v2.8M13.2 22h2.8M32.8 22h2.8" stroke="#1e293b" stroke-width="1.6" stroke-linecap="round"/>
  <path d="M24 33.5 L22.4 41.2 L26 40.6 Z" fill="#f87171" stroke="#7f1d1d" stroke-width="1.6" stroke-linejoin="round"/>
  <path d="M31.5 14.2l1.6 1.5-1.2 0.7 0.4 1.6-1.5-1-1.5 1 0.4-1.6-1.2-0.7z" fill="#fde68a" stroke="#92400e" stroke-width="1"/>
  <path d="M17 14.5l0.8 1.6-1.7 0.2 1.3 1.1-0.9 1.5 1.5-0.9 1.5 0.9-0.9-1.5 1.3-1.1-1.7-0.2z" fill="#fde68a" stroke="#92400e" stroke-width="0.9"/>
</svg>
