<svg xmlns="http://www.w3.org/2000/svg" viewBox="0 0 1200 630" fill="none">
  <rect width="1200" height="630" fill="#b8e4f8"/>
  <rect x="40" y="40" width="1120" height="550" rx="28" fill="#fff6d8" stroke="#334155" stroke-width="4" stroke-dasharray="8 6"/>
  <circle cx="420" cy="310" r="165" fill="#5eb8f2" stroke="#1e293b" stroke-width="5"/>
  <ellipse cx="420" cy="310" rx="165" ry="165" fill="none" stroke="#1e293b" stroke-width="3.5" stroke-dasharray="6 5" transform="rotate(-8 420 310)"/>
  <path d="M280 310c0-77.3 62.7-140 140-140" stroke="rgba(255,255,255,0.3)" stroke-width="4" stroke-linecap="round"/>
  <path d="M420 160v28M420 432v28M292 310h28M548 310h28" stroke="#1e293b" stroke-width="4" stroke-linecap="round"/>
  <path d="M350 250c40-30 90-20 120 15M390 370c50 35 110 25 145-10" stroke="rgba(30,41,59,0.2)" stroke-width="3" stroke-linecap="round"/>
  <path d="M420 475 L405 545 L438 536 Z" fill="#f87171" stroke="#7f1d1d" stroke-width="3.5" stroke-linejoin="round"/>
  <text x="700" y="280" font-family="ui-sans-serif, system-ui, sans-serif" font-size="88" font-weight="800" fill="#1e293b" letter-spacing="-2">FestSeekr</text>
  <text x="700" y="360" font-family="ui-sans-serif, system-ui, sans-serif" font-size="36" font-weight="600" fill="#475569">Festivals, holidays &amp; events worldwide</text>
  <text x="700" y="420" font-family="ui-sans-serif, system-ui, sans-serif" font-size="28" font-weight="500" fill="#64748b">Interactive doodle-style world map</text>
</svg>
